<?xml version="1.0" standalone="no"?>
<!DOCTYPE svg PUBLIC "-//W3C//DTD SVG 20010904//EN"
 "http://www.w3.org/TR/2001/REC-SVG-20010904/DTD/svg10.dtd">
<svg version="1.0" xmlns="http://www.w3.org/2000/svg"
 width="32.000000pt" height="32.000000pt" viewBox="0 0 32.000000 32.000000"
 preserveAspectRatio="xMidYMid meet">

<g transform="translate(0.000000,32.000000) scale(0.100000,-0.100000)"
fill="#000000" stroke="none">
<path d="M4 307 c-2 -7 -3 -78 -2 -157 l3 -145 155 0 155 0 0 155 0 155 -153
3 c-119 2 -154 0 -158 -11z m186 -94 c20 -26 20 -28 3 -34 -11 -4 -25 0 -36
12 -21 22 -27 23 -51 6 -21 -16 -18 -55 5 -70 17 -10 30 -7 61 15 13 10 20 10
29 1 9 -9 5 -18 -14 -37 -74 -74 -181 26 -116 108 29 37 89 37 119 -1z m78
-50 c-3 -65 -6 -78 -20 -81 -16 -3 -18 6 -18 77 0 75 2 81 20 81 19 0 21 -5
18 -77z"/>
</g>
</svg>
